<svg xmlns="http://www.w3.org/2000/svg" width="720" height="460" viewBox="0 0 720 460" font-family="system-ui,sans-serif">
<rect width="720" height="460" fill="#FBF9F5"/>
<text x="70" y="24" font-size="15" font-weight="600" fill="#211E19">rump — arithmetic scaling (mean ns/op, log–log)</text>
<line x1="70.0" y1="40" x2="70.0" y2="405" stroke="#E4DED4"/>
<text x="70.0" y="423" font-size="11" fill="#6F675C" text-anchor="middle">256</text>
<line x1="320.0" y1="40" x2="320.0" y2="405" stroke="#E4DED4"/>
<text x="320.0" y="423" font-size="11" fill="#6F675C" text-anchor="middle">1024</text>
<line x1="445.0" y1="40" x2="445.0" y2="405" stroke="#E4DED4"/>
<text x="445.0" y="423" font-size="11" fill="#6F675C" text-anchor="middle">2048</text>
<line x1="570.0" y1="40" x2="570.0" y2="405" stroke="#E4DED4"/>
<text x="570.0" y="423" font-size="11" fill="#6F675C" text-anchor="middle">4096</text>
<text x="320" y="446" font-size="12" fill="#6F675C" text-anchor="middle">bit width</text>
<line x1="70" y1="350.1" x2="570" y2="350.1" stroke="#E4DED4"/>
<text x="62" y="354.1" font-size="11" fill="#6F675C" text-anchor="end">10 ns</text>
<line x1="70" y1="254.8" x2="570" y2="254.8" stroke="#E4DED4"/>
<text x="62" y="258.8" font-size="11" fill="#6F675C" text-anchor="end">100 ns</text>
<line x1="70" y1="159.6" x2="570" y2="159.6" stroke="#E4DED4"/>
<text x="62" y="163.6" font-size="11" fill="#6F675C" text-anchor="end">1 µs</text>
<line x1="70" y1="64.4" x2="570" y2="64.4" stroke="#E4DED4"/>
<text x="62" y="68.4" font-size="11" fill="#6F675C" text-anchor="end">10 µs</text>
<path d="M70.0,388.4 L320.0,347.0 L445.0,319.7 L570.0,287.0" fill="none" stroke="#A64E28" stroke-width="2" />
<circle cx="70.0" cy="388.4" r="2.5" fill="#A64E28"/>
<circle cx="320.0" cy="347.0" r="2.5" fill="#A64E28"/>
<circle cx="445.0" cy="319.7" r="2.5" fill="#A64E28"/>
<circle cx="570.0" cy="287.0" r="2.5" fill="#A64E28"/>
<path d="M70.0,348.8 L320.0,317.8 L445.0,296.7 L570.0,267.0" fill="none" stroke="#A64E28" stroke-width="2" stroke-dasharray="5,3"/>
<circle cx="70.0" cy="348.8" r="2.5" fill="#A64E28"/>
<circle cx="320.0" cy="317.8" r="2.5" fill="#A64E28"/>
<circle cx="445.0" cy="296.7" r="2.5" fill="#A64E28"/>
<circle cx="570.0" cy="267.0" r="2.5" fill="#A64E28"/>
<path d="M70.0,331.7 L320.0,292.1 L445.0,262.9 L570.0,238.1" fill="none" stroke="#A64E28" stroke-width="2" stroke-dasharray="1,3"/>
<circle cx="70.0" cy="331.7" r="2.5" fill="#A64E28"/>
<circle cx="320.0" cy="292.1" r="2.5" fill="#A64E28"/>
<circle cx="445.0" cy="262.9" r="2.5" fill="#A64E28"/>
<circle cx="570.0" cy="238.1" r="2.5" fill="#A64E28"/>
<path d="M70.0,357.7 L320.0,325.9 L445.0,294.7 L570.0,267.8" fill="none" stroke="#A64E28" stroke-width="2" stroke-dasharray="5,3,1,3"/>
<circle cx="70.0" cy="357.7" r="2.5" fill="#A64E28"/>
<circle cx="320.0" cy="325.9" r="2.5" fill="#A64E28"/>
<circle cx="445.0" cy="294.7" r="2.5" fill="#A64E28"/>
<circle cx="570.0" cy="267.8" r="2.5" fill="#A64E28"/>
<path d="M70.0,375.5 L320.0,338.1 L445.0,313.9 L570.0,286.6" fill="none" stroke="#3D648A" stroke-width="2" />
<circle cx="70.0" cy="375.5" r="2.5" fill="#3D648A"/>
<circle cx="320.0" cy="338.1" r="2.5" fill="#3D648A"/>
<circle cx="445.0" cy="313.9" r="2.5" fill="#3D648A"/>
<circle cx="570.0" cy="286.6" r="2.5" fill="#3D648A"/>
<path d="M70.0,334.6 L320.0,307.2 L445.0,287.2 L570.0,263.6" fill="none" stroke="#3D648A" stroke-width="2" stroke-dasharray="5,3"/>
<circle cx="70.0" cy="334.6" r="2.5" fill="#3D648A"/>
<circle cx="320.0" cy="307.2" r="2.5" fill="#3D648A"/>
<circle cx="445.0" cy="287.2" r="2.5" fill="#3D648A"/>
<circle cx="570.0" cy="263.6" r="2.5" fill="#3D648A"/>
<path d="M70.0,316.3 L320.0,284.2 L445.0,262.6 L570.0,237.7" fill="none" stroke="#3D648A" stroke-width="2" stroke-dasharray="1,3"/>
<circle cx="70.0" cy="316.3" r="2.5" fill="#3D648A"/>
<circle cx="320.0" cy="284.2" r="2.5" fill="#3D648A"/>
<circle cx="445.0" cy="262.6" r="2.5" fill="#3D648A"/>
<circle cx="570.0" cy="237.7" r="2.5" fill="#3D648A"/>
<path d="M70.0,364.5 L320.0,316.9 L445.0,285.9 L570.0,256.9" fill="none" stroke="#3D648A" stroke-width="2" stroke-dasharray="5,3,1,3"/>
<circle cx="70.0" cy="364.5" r="2.5" fill="#3D648A"/>
<circle cx="320.0" cy="316.9" r="2.5" fill="#3D648A"/>
<circle cx="445.0" cy="285.9" r="2.5" fill="#3D648A"/>
<circle cx="570.0" cy="256.9" r="2.5" fill="#3D648A"/>
<path d="M70.0,315.1 L320.0,230.0 L445.0,176.4 L570.0,115.4" fill="none" stroke="#2E7D4F" stroke-width="2" />
<circle cx="70.0" cy="315.1" r="2.5" fill="#2E7D4F"/>
<circle cx="320.0" cy="230.0" r="2.5" fill="#2E7D4F"/>
<circle cx="445.0" cy="176.4" r="2.5" fill="#2E7D4F"/>
<circle cx="570.0" cy="115.4" r="2.5" fill="#2E7D4F"/>
<path d="M70.0,278.9 L320.0,198.6 L445.0,148.2 L570.0,92.3" fill="none" stroke="#2E7D4F" stroke-width="2" stroke-dasharray="5,3"/>
<circle cx="70.0" cy="278.9" r="2.5" fill="#2E7D4F"/>
<circle cx="320.0" cy="198.6" r="2.5" fill="#2E7D4F"/>
<circle cx="445.0" cy="148.2" r="2.5" fill="#2E7D4F"/>
<circle cx="570.0" cy="92.3" r="2.5" fill="#2E7D4F"/>
<path d="M70.0,263.5 L320.0,169.3 L445.0,113.6 L570.0,56.6" fill="none" stroke="#2E7D4F" stroke-width="2" stroke-dasharray="1,3"/>
<circle cx="70.0" cy="263.5" r="2.5" fill="#2E7D4F"/>
<circle cx="320.0" cy="169.3" r="2.5" fill="#2E7D4F"/>
<circle cx="445.0" cy="113.6" r="2.5" fill="#2E7D4F"/>
<circle cx="570.0" cy="56.6" r="2.5" fill="#2E7D4F"/>
<path d="M70.0,295.2 L320.0,212.3 L445.0,132.8 L570.0,79.3" fill="none" stroke="#2E7D4F" stroke-width="2" stroke-dasharray="5,3,1,3"/>
<circle cx="70.0" cy="295.2" r="2.5" fill="#2E7D4F"/>
<circle cx="320.0" cy="212.3" r="2.5" fill="#2E7D4F"/>
<circle cx="445.0" cy="132.8" r="2.5" fill="#2E7D4F"/>
<circle cx="570.0" cy="79.3" r="2.5" fill="#2E7D4F"/>
<path d="M70.0,314.8 L320.0,247.5 L445.0,199.8 L570.0,140.5" fill="none" stroke="#A97416" stroke-width="2" />
<circle cx="70.0" cy="314.8" r="2.5" fill="#A97416"/>
<circle cx="320.0" cy="247.5" r="2.5" fill="#A97416"/>
<circle cx="445.0" cy="199.8" r="2.5" fill="#A97416"/>
<circle cx="570.0" cy="140.5" r="2.5" fill="#A97416"/>
<path d="M70.0,275.5 L320.0,220.2 L445.0,173.8 L570.0,119.1" fill="none" stroke="#A97416" stroke-width="2" stroke-dasharray="5,3"/>
<circle cx="70.0" cy="275.5" r="2.5" fill="#A97416"/>
<circle cx="320.0" cy="220.2" r="2.5" fill="#A97416"/>
<circle cx="445.0" cy="173.8" r="2.5" fill="#A97416"/>
<circle cx="570.0" cy="119.1" r="2.5" fill="#A97416"/>
<path d="M70.0,262.6 L320.0,192.6 L445.0,139.6 L570.0,84.1" fill="none" stroke="#A97416" stroke-width="2" stroke-dasharray="1,3"/>
<circle cx="70.0" cy="262.6" r="2.5" fill="#A97416"/>
<circle cx="320.0" cy="192.6" r="2.5" fill="#A97416"/>
<circle cx="445.0" cy="139.6" r="2.5" fill="#A97416"/>
<circle cx="570.0" cy="84.1" r="2.5" fill="#A97416"/>
<path d="M70.0,287.4 L320.0,211.0 L445.0,132.0 L570.0,80.1" fill="none" stroke="#A97416" stroke-width="2" stroke-dasharray="5,3,1,3"/>
<circle cx="70.0" cy="287.4" r="2.5" fill="#A97416"/>
<circle cx="320.0" cy="211.0" r="2.5" fill="#A97416"/>
<circle cx="445.0" cy="132.0" r="2.5" fill="#A97416"/>
<circle cx="570.0" cy="80.1" r="2.5" fill="#A97416"/>
<line x1="578" y1="46" x2="596" y2="46" stroke="#A64E28" stroke-width="2"/>
<text x="600" y="50" font-size="10" fill="#211E19">add</text>
<line x1="578" y1="62" x2="596" y2="62" stroke="#3D648A" stroke-width="2"/>
<text x="600" y="66" font-size="10" fill="#211E19">sub</text>
<line x1="578" y1="78" x2="596" y2="78" stroke="#2E7D4F" stroke-width="2"/>
<text x="600" y="82" font-size="10" fill="#211E19">mul</text>
<line x1="578" y1="94" x2="596" y2="94" stroke="#A97416" stroke-width="2"/>
<text x="600" y="98" font-size="10" fill="#211E19">sqr</text>
<line x1="578" y1="116" x2="596" y2="116" stroke="#211E19" stroke-width="2" />
<text x="600" y="120" font-size="10" fill="#6F675C">M4</text>
<line x1="578" y1="131" x2="596" y2="131" stroke="#211E19" stroke-width="2" stroke-dasharray="5,3"/>
<text x="600" y="135" font-size="10" fill="#6F675C">EPYC</text>
<line x1="578" y1="146" x2="596" y2="146" stroke="#211E19" stroke-width="2" stroke-dasharray="1,3"/>
<text x="600" y="150" font-size="10" fill="#6F675C">Pi</text>
<line x1="578" y1="161" x2="596" y2="161" stroke="#211E19" stroke-width="2" stroke-dasharray="5,3,1,3"/>
<text x="600" y="165" font-size="10" fill="#6F675C">A18</text>
</svg>